<svg width="58" height="58" viewBox="0 0 58 58" fill="none" xmlns="http://www.w3.org/2000/svg">
<g clip-path="url(#clip0_515_43)">
<path d="M29 0.717773C12.9775 0.717773 0 13.7025 0 29.7178C0 42.5334 8.3085 53.4011 19.8288 57.2315C21.2788 57.5046 21.8104 56.608 21.8104 55.8371C21.8104 55.1484 21.7863 53.3238 21.7742 50.9071C13.7073 52.6568 12.006 47.0163 12.006 47.0163C10.6865 43.6692 8.77975 42.775 8.77975 42.775C6.15283 40.977 8.98275 41.0133 8.98275 41.0133C11.8948 41.2163 13.4246 44.0003 13.4246 44.0003C16.0104 48.4349 20.213 47.154 21.8708 46.4121C22.1318 44.5368 22.8786 43.2584 23.7075 42.5334C17.2671 41.8084 10.498 39.3144 10.498 28.2025C10.498 25.0367 11.6218 22.4509 13.4826 20.4209C13.1563 19.6886 12.1776 16.7403 13.7363 12.7455C13.7363 12.7455 16.1651 11.9674 21.7113 15.718C24.0313 15.0728 26.4963 14.7538 28.9613 14.7393C31.4263 14.7538 33.8913 15.0728 36.2113 15.718C41.7213 11.9674 44.1501 12.7455 44.1501 12.7455C45.7088 16.7403 44.7301 19.6886 44.4401 20.4209C46.2888 22.4509 47.4126 25.0367 47.4126 28.2025C47.4126 39.3434 40.6338 41.7963 34.1813 42.5092C35.1963 43.3792 36.1388 45.1579 36.1388 47.8742C36.1388 51.7554 36.1026 54.8729 36.1026 55.8154C36.1026 56.5766 36.6101 57.4829 38.0963 57.1929C49.6988 53.389 58 42.514 58 29.7178C58 13.7025 45.0153 0.717773 29 0.717773Z" fill="#F7F1F1"/>
</g>
<defs>
<clipPath id="clip0_515_43">
<rect width="58" height="58" fill="white"/>
</clipPath>
</defs>
</svg>
