<svg width="103" height="20" viewBox="0 0 103 20" fill="none" xmlns="http://www.w3.org/2000/svg">
<path d="M95.9846 8.24154H95.7252C94.9427 8.24154 94.3012 8.67065 93.8008 9.52886C93.3094 10.3871 93.0637 11.4134 93.0637 12.6078V13.351C93.0637 14.6959 93.3504 15.8328 93.9236 16.7618C94.4968 17.6908 95.1838 18.1553 95.9846 18.1553H96.2439C96.9445 18.1553 97.5542 17.8102 98.0728 17.1201C98.6006 16.4211 98.8645 15.4921 98.8645 14.3331L98.8918 14.0544L98.9054 13.497V13.351L98.8918 13.205V12.9263C98.8736 12.7317 98.8645 12.5901 98.8645 12.5017C98.8645 11.3249 98.5778 10.3207 98.0046 9.48905C97.4313 8.65737 96.758 8.24154 95.9846 8.24154ZM95.9982 6.47644H96.6807C97.4905 6.47644 98.3231 6.66224 99.1784 7.03384C100.807 7.74165 101.926 8.89184 102.536 10.4844C102.845 11.3072 103 12.1478 103 13.006V13.2449C103 14.165 102.809 15.0675 102.427 15.9522C102.045 16.837 101.531 17.5713 100.884 18.1553C99.5378 19.3409 97.9909 19.9336 96.2439 19.9336C96.1074 19.9336 95.9709 19.9292 95.8344 19.9204C94.9609 19.9204 94.101 19.7523 93.2548 19.4161C92.4177 19.071 91.7307 18.6153 91.1938 18.0491C90.0382 16.8104 89.4604 15.2577 89.4604 13.3908V13.1652L89.4741 12.9396C89.4832 12.1168 89.6424 11.3028 89.9518 10.4977C90.5524 8.95819 91.6534 7.82128 93.2548 7.08692C94.1556 6.67994 95.0701 6.47644 95.9982 6.47644Z" fill="url(#paint0_linear_533_115)"/>
<path d="M85.0706 8.0292C86.1261 7.32139 87.027 6.96749 87.7731 6.96749C88.5192 6.96749 89.0242 7.12232 89.2881 7.43199C89.5611 7.74165 89.6976 8.11325 89.6976 8.54678C89.6976 8.98032 89.5747 9.36961 89.3291 9.71467C89.0925 10.0509 88.8195 10.219 88.5101 10.219C88.2099 10.219 87.7913 10.104 87.2544 9.87393C86.7176 9.64389 86.3036 9.52887 86.0124 9.52887C85.7212 9.52887 85.3937 9.67928 85.0297 9.9801C84.6657 10.2809 84.4109 10.71 84.2654 11.2674C84.1289 11.8248 84.0606 12.7007 84.0606 13.8952C84.0606 15.0807 84.1471 15.8505 84.32 16.2044C84.4928 16.5494 84.8477 17.0051 85.3846 17.5713C85.9214 18.1376 86.1898 18.6021 86.1898 18.9648C86.1898 19.3895 85.1343 19.6019 83.0233 19.6019H81.8495L81.5629 19.5886C81.3718 19.5797 81.1762 19.5753 80.976 19.5753L80.6894 19.562C80.4983 19.5532 80.2981 19.5488 80.0888 19.5488C79.1334 19.5488 78.6557 19.3497 78.6557 18.9516C78.6557 18.5534 78.8923 18.1509 79.3655 17.7439C79.8477 17.3369 80.1389 16.9697 80.239 16.6423C80.3482 16.315 80.4028 15.1913 80.4028 13.2714C80.4028 11.3515 80.3391 10.2013 80.2117 9.82084C80.0934 9.44039 79.7977 9.11746 79.3245 8.85203C78.8604 8.57775 78.6284 8.29463 78.6284 8.00266C78.6284 7.59567 78.9423 7.30812 79.5702 7.14002C80.5165 6.89228 81.3718 6.76842 82.1362 6.76842C82.9005 6.76842 83.4146 6.85247 83.6785 7.02057C83.7877 7.09135 83.9105 7.31697 84.047 7.69742C84.1926 8.07786 84.3609 8.26809 84.552 8.26809C84.6339 8.26809 84.8068 8.18846 85.0706 8.0292Z" fill="url(#paint1_linear_533_115)"/>
<path d="M73.1878 14.1871C73.1878 13.789 73.0604 13.5899 72.8057 13.5899H72.4508C72.2233 13.6342 72.0504 13.6563 71.9321 13.6563C71.1041 13.6563 70.408 13.8907 69.8439 14.3597C69.2797 14.8286 68.9976 15.3594 68.9976 15.9522V16.2575C68.9976 16.7087 69.1432 17.098 69.4344 17.4254C69.7256 17.7527 70.0804 17.9164 70.499 17.9164H70.9358C71.5363 17.9164 72.0504 17.735 72.4781 17.3723C72.9057 17.0095 73.1196 16.6556 73.1196 16.3106C73.156 16.1336 73.1742 16.0186 73.1742 15.9655L73.2015 15.7532V15.1825L73.2151 14.9701V14.3862C73.1969 14.2977 73.1878 14.2314 73.1878 14.1871ZM78.7292 18.3942V18.5932C78.7292 18.8941 78.388 19.1772 77.7056 19.4426C77.0231 19.6992 76.2133 19.8275 75.2761 19.8275C74.7028 19.8275 74.2069 19.5753 73.7884 19.071C73.5609 18.7879 73.3835 18.6463 73.2561 18.6463C73.1287 18.6375 72.9103 18.7392 72.6009 18.9516C71.5636 19.6417 70.4444 19.9867 69.2433 19.9867C69.2342 19.9867 69.2251 19.9912 69.216 20C68.0331 20 67.0868 19.7036 66.3771 19.1108C65.6673 18.518 65.3079 17.6864 65.2988 16.6158C65.2988 14.3154 67.1187 12.8688 70.7583 12.276C71.6319 12.1433 72.1551 12.0416 72.3279 11.9708C72.8557 11.7585 73.1196 11.2851 73.1196 10.5508C73.1196 9.81642 72.9467 9.28998 72.6009 8.97147C72.2643 8.64411 71.8684 8.48043 71.4135 8.48043C70.6946 8.48043 70.0441 8.85645 69.4617 9.6085C68.8794 10.3517 68.2015 10.7233 67.428 10.7233C66.9731 10.7233 66.6273 10.6039 66.3907 10.365C66.1633 10.1172 66.0495 9.86508 66.0495 9.6085C66.0495 8.82991 66.4681 8.21058 67.3052 7.7505C68.6974 6.98961 70.1714 6.60916 71.7274 6.60916H72.4371C73.2197 6.60916 73.9658 6.77284 74.6755 7.1002C75.3944 7.41872 75.9494 7.90976 76.3407 8.57333C76.732 9.2369 76.9276 10.7189 76.9276 13.0192C76.9276 15.3196 77.0004 16.6468 77.146 17.0007C77.3007 17.3457 77.6009 17.6023 78.0468 17.7704C78.5017 17.9297 78.7292 18.1376 78.7292 18.3942Z" fill="url(#paint2_linear_533_115)"/>
<path d="M56.8139 8.59987C56.4136 8.33445 56.2134 8.07787 56.2134 7.83013C56.2134 7.57355 56.4545 7.3214 56.9368 7.07366C57.419 6.82593 57.7193 6.62686 57.8376 6.47645C57.9559 6.32604 58.1424 5.9102 58.3972 5.22894C58.6611 4.54767 58.9386 4.02566 59.2298 3.66291C59.5209 3.29131 59.9031 3.10551 60.3763 3.10551C60.8494 3.10551 61.1906 3.29131 61.3999 3.66291C61.4909 3.83102 61.6092 4.22916 61.7548 4.85734C61.9095 5.48552 62.0915 5.88808 62.3007 6.06504C62.51 6.24199 62.9104 6.44106 63.5018 6.66225C64.0933 6.87459 64.3981 6.98519 64.4163 6.99403C64.7257 7.23292 64.8804 7.51604 64.8804 7.8434C64.8804 8.12653 64.4481 8.37868 63.5837 8.59987C62.7284 8.82106 62.1779 9.15727 61.9322 9.6085C61.6956 10.0597 61.5773 11.1878 61.5773 12.9927C61.5773 14.7976 61.7184 15.9699 62.0005 16.5096C62.2916 17.0493 62.7648 17.3192 63.4199 17.3192L63.9113 17.2794C64.1297 17.2617 64.3663 17.2528 64.621 17.2528C65.1761 17.2528 65.4536 17.4563 65.4536 17.8633C65.4536 18.3853 65.1169 18.8012 64.4436 19.1108C63.4791 19.5532 62.46 19.7744 61.3863 19.7744C60.8858 19.7744 60.3854 19.6417 59.8849 19.3763C59.3844 19.1108 59.0023 18.7879 58.7384 18.4074C58.2197 17.6642 57.9604 16.6025 57.9604 15.2223L57.9468 14.9436C57.9377 14.749 57.9331 14.5322 57.9331 14.2933V13.5103C57.9331 11.9797 57.8057 10.6746 57.551 9.59523C57.46 9.19709 57.2143 8.8653 56.8139 8.59987Z" fill="url(#paint3_linear_533_115)"/>
<path d="M56.7097 18.6861C56.7097 19.0135 56.4322 19.2568 55.8771 19.4161C55.3312 19.5665 54.4076 19.6417 53.1064 19.6417C51.8143 19.6417 51.0409 19.5532 50.7861 19.3762C50.5313 19.1993 50.404 18.9914 50.404 18.7525C50.404 18.5048 50.5177 18.1332 50.7452 17.6377C50.9818 17.1422 51.1273 16.7441 51.1819 16.4433C51.2365 16.1424 51.2638 15.125 51.2638 13.3908C51.2638 11.6567 51.1091 10.4756 50.7998 9.84738C50.4995 9.21035 49.9035 8.89183 49.0118 8.89183C48.1201 8.89183 47.3967 9.26786 46.8416 10.0199C46.4686 10.5242 46.282 11.4488 46.282 12.7936C46.282 15.0144 46.4913 16.6423 46.9099 17.6775C47.1647 18.2791 47.292 18.6684 47.292 18.8454C47.292 19.1816 47.0828 19.3939 46.6642 19.4824C46.2456 19.562 45.3357 19.6019 43.9344 19.6019C42.5423 19.6019 41.7006 19.5134 41.4094 19.3364C41.1182 19.1506 40.9727 18.9029 40.9727 18.5932C40.9727 18.2836 41.2138 17.9739 41.696 17.6642C42.1783 17.3546 42.4513 17.0759 42.515 16.8281C42.5787 16.5716 42.6105 15.4479 42.6105 13.4572C42.6105 11.4576 42.5423 10.2898 42.4058 9.95355C42.2693 9.60849 41.9963 9.21035 41.5869 8.75912C41.1774 8.30789 40.9727 8.07786 40.9727 8.06901V7.79031C40.9727 7.6399 41.0864 7.50276 41.3139 7.3789C42.1055 6.93652 43.2838 6.71533 44.8489 6.71533C45.2857 6.71533 45.6496 6.92324 45.9408 7.33908C46.2411 7.75492 46.4595 7.96284 46.596 7.96284C46.7324 7.96284 47.0509 7.82128 47.5514 7.53815C48.0609 7.24618 48.3384 7.09135 48.3839 7.07365C49.1119 6.74629 49.7898 6.58261 50.4176 6.58261H50.8544C52.4467 6.58261 53.5841 7.20194 54.2666 8.44061C54.7033 9.24574 54.9217 11.1789 54.9217 14.2402C54.9217 15.877 54.9763 16.8104 55.0855 17.0405C55.1947 17.2705 55.4904 17.5359 55.9727 17.8368C56.464 18.1287 56.7097 18.4119 56.7097 18.6861Z" fill="url(#paint4_linear_533_115)"/>
<path d="M40.8547 18.6065C40.8547 19.3232 39.8128 19.6815 37.7291 19.6815C37.1104 19.6815 36.6872 19.5974 36.4598 19.4293C36.2323 19.2612 36.0457 19.04 35.9002 18.7658C35.7546 18.4826 35.6317 18.3411 35.5316 18.3411C35.4407 18.3411 35.1631 18.4871 34.6991 18.779C34.235 19.0622 33.7391 19.3143 33.2114 19.5355C32.6927 19.7567 32.0103 19.8673 31.164 19.8673C30.3178 19.8673 29.599 19.6903 29.0075 19.3364C28.4252 18.9825 27.9657 18.4694 27.629 17.7969C27.3014 17.1245 27.1376 15.6072 27.1376 13.2449C27.1376 10.8825 27.0831 9.59079 26.9739 9.3696C26.8738 9.14841 26.5826 8.93165 26.1003 8.71931C25.6181 8.50696 25.377 8.24596 25.377 7.93629C25.377 7.51161 25.6499 7.22849 26.1959 7.08692C27.0421 6.86573 28.0931 6.75514 29.3487 6.75514C29.9493 6.75514 30.3406 7.0073 30.5225 7.51161C30.7045 8.01592 30.7955 9.42269 30.7955 11.7319C30.7955 14.0411 30.8729 15.4966 31.0275 16.0982C31.2368 16.9299 31.6963 17.4253 32.4061 17.5846C32.5881 17.6288 32.7746 17.651 32.9657 17.651C33.2932 17.651 33.6299 17.589 33.9757 17.4652C34.5398 17.2705 34.9629 16.983 35.245 16.6025C35.5362 16.2132 35.6818 15.2223 35.6818 13.6297C35.6818 12.0372 35.5999 10.9135 35.4361 10.2588C35.2723 9.60407 35.0403 9.05551 34.74 8.61313C34.4397 8.17075 34.2896 7.85666 34.2896 7.67087C34.2896 7.05153 35.4634 6.74187 37.811 6.74187H38.1932C38.6663 6.74187 38.9848 6.83477 39.1486 7.02057C39.3215 7.19752 39.4079 7.65759 39.4079 8.40079L39.3533 10.3251L39.3397 10.7233V12.6875C39.3397 14.6339 39.3942 15.8372 39.5034 16.2973C39.6126 16.7574 39.8629 17.2395 40.2541 17.7439C40.6545 18.2482 40.8547 18.5357 40.8547 18.6065Z" fill="url(#paint5_linear_533_115)"/>
<path d="M25.9686 18.7658C25.9686 19.1816 25.6638 19.4559 25.0542 19.5886C24.4445 19.7125 23.5756 19.7744 22.4473 19.7744C21.319 19.7744 20.5865 19.7036 20.2498 19.562C19.9131 19.4205 19.7448 19.1816 19.7448 18.8454C19.7448 18.7038 19.8631 18.4163 20.0997 17.9827C20.3363 17.5492 20.5 17.1865 20.591 16.8945C20.682 16.5937 20.7275 15.5187 20.7275 13.6695C20.7275 11.8204 20.5683 10.5729 20.2498 9.92701C19.9313 9.27228 19.3262 8.94492 18.4345 8.94492C17.5519 8.94492 16.874 9.23689 16.4009 9.82084C15.9368 10.3959 15.7048 11.4488 15.7048 12.9794C15.7048 13.4837 15.7685 14.2623 15.8959 15.3152C16.0232 16.3681 16.2052 17.1688 16.4418 17.7173C16.6784 18.2659 16.7967 18.5667 16.7967 18.6198C16.7967 19.0179 16.551 19.2701 16.0596 19.3762C15.3408 19.5267 14.2534 19.6019 12.7976 19.6019C11.3508 19.6019 10.6274 19.3851 10.6274 18.9516C10.6274 18.6419 10.8367 18.1995 11.2553 17.6244C11.6829 17.0493 11.9241 16.5494 11.9787 16.1248C12.0423 15.7001 12.0742 13.5766 12.0742 9.75448C12.0742 5.93232 12.0105 3.78677 11.8831 3.31785C11.7648 2.84893 11.5692 2.49502 11.2962 2.25614C10.6502 1.68989 10.3271 1.37138 10.3271 1.3006C10.3271 0.937846 10.5228 0.676841 10.914 0.517585C11.7512 0.172528 12.8613 0 14.2443 0C14.9086 0 15.3363 0.234461 15.5273 0.703384C15.6456 0.995355 15.7048 2.13227 15.7048 4.11413C15.7048 6.08715 15.723 7.13559 15.7594 7.25946C15.8504 7.56912 16.0369 7.72395 16.319 7.72395C16.4373 7.72395 16.6966 7.63548 17.0969 7.45853C18.207 6.96306 19.2171 6.71533 20.127 6.71533C21.7739 6.71533 22.9386 7.34793 23.6211 8.61314C24.1124 9.52444 24.3581 11.0816 24.3581 13.2847C24.3581 15.4877 24.4218 16.7352 24.5492 17.0272C24.6766 17.3192 24.945 17.6554 25.3545 18.0358C25.7639 18.4163 25.9686 18.6596 25.9686 18.7658Z" fill="url(#paint6_linear_533_115)"/>
<path d="M9.06279 7.11347C9.47225 7.3435 9.67698 7.83012 9.67698 8.57332C9.67698 9.31652 9.62239 9.80756 9.5132 10.0464C9.40401 10.2853 9.19018 10.4048 8.8717 10.4048C8.36215 10.4048 7.81165 10.0464 7.2202 9.32979C6.63785 8.61314 5.90082 8.25481 5.0091 8.25481C4.49955 8.25481 4.09463 8.3831 3.79436 8.63968C3.49409 8.89626 3.34395 9.17938 3.34395 9.48905C3.34395 10.0199 3.60783 10.4623 4.13558 10.8162C4.39036 10.9843 5.20473 11.3515 6.57871 11.9177C7.96179 12.4751 8.94905 13.0546 9.54049 13.6563C10.141 14.2491 10.4413 15.0586 10.4413 16.0849C10.4413 17.1113 9.9909 18.0049 9.09009 18.7658C8.18927 19.5267 7.03367 19.9071 5.6233 19.9071H4.89991C3.13467 19.9071 1.81074 19.7036 0.928117 19.2966C0.309372 19.0135 0 18.3411 0 17.2794C0 16.2176 0.204732 15.6868 0.614195 15.6868C1.13285 15.6868 1.77434 16.0982 2.53867 16.921C3.3121 17.7439 4.14923 18.1553 5.05005 18.1553C5.596 18.1553 6.05551 18.0447 6.42857 17.8235C6.81074 17.5934 7.00182 17.2395 7.00182 16.7618C7.00182 16.2752 6.73795 15.8416 6.21019 15.4612C5.92812 15.2577 5.16379 14.8994 3.9172 14.3862C2.67971 13.8642 1.79709 13.3599 1.26934 12.8733C0.477707 12.1478 0.0818927 11.2586 0.0818927 10.2057C0.0818927 9.14399 0.545951 8.26808 1.47407 7.57797C2.40218 6.87901 3.48499 6.52953 4.72248 6.52953H5.09099C7.03822 6.52953 8.36215 6.72417 9.06279 7.11347Z" fill="url(#paint7_linear_533_115)"/>
<defs>
<linearGradient id="paint0_linear_533_115" x1="-1.20127" y1="10.8788" x2="104.62" y2="10.8788" gradientUnits="userSpaceOnUse">
<stop stop-color="#E4678F"/>
<stop offset="0.435161" stop-color="#AA6FAE"/>
<stop offset="0.890784" stop-color="#D8AD66"/>
</linearGradient>
<linearGradient id="paint1_linear_533_115" x1="-1.20109" y1="10.8788" x2="104.62" y2="10.8788" gradientUnits="userSpaceOnUse">
<stop stop-color="#E4678F"/>
<stop offset="0.435161" stop-color="#AA6FAE"/>
<stop offset="0.890784" stop-color="#D8AD66"/>
</linearGradient>
<linearGradient id="paint2_linear_533_115" x1="-1.20074" y1="10.8788" x2="104.62" y2="10.8788" gradientUnits="userSpaceOnUse">
<stop stop-color="#E4678F"/>
<stop offset="0.435161" stop-color="#AA6FAE"/>
<stop offset="0.890784" stop-color="#D8AD66"/>
</linearGradient>
<linearGradient id="paint3_linear_533_115" x1="-1.20101" y1="10.8788" x2="104.62" y2="10.8788" gradientUnits="userSpaceOnUse">
<stop stop-color="#E4678F"/>
<stop offset="0.435161" stop-color="#AA6FAE"/>
<stop offset="0.890784" stop-color="#D8AD66"/>
</linearGradient>
<linearGradient id="paint4_linear_533_115" x1="-1.20097" y1="10.8788" x2="104.62" y2="10.8788" gradientUnits="userSpaceOnUse">
<stop stop-color="#E4678F"/>
<stop offset="0.435161" stop-color="#AA6FAE"/>
<stop offset="0.890784" stop-color="#D8AD66"/>
</linearGradient>
<linearGradient id="paint5_linear_533_115" x1="-1.20103" y1="10.8788" x2="104.62" y2="10.8788" gradientUnits="userSpaceOnUse">
<stop stop-color="#E4678F"/>
<stop offset="0.435161" stop-color="#AA6FAE"/>
<stop offset="0.890784" stop-color="#D8AD66"/>
</linearGradient>
<linearGradient id="paint6_linear_533_115" x1="-1.20115" y1="10.8788" x2="104.62" y2="10.8788" gradientUnits="userSpaceOnUse">
<stop stop-color="#E4678F"/>
<stop offset="0.435161" stop-color="#AA6FAE"/>
<stop offset="0.890784" stop-color="#D8AD66"/>
</linearGradient>
<linearGradient id="paint7_linear_533_115" x1="-1.20109" y1="10.8788" x2="104.62" y2="10.8788" gradientUnits="userSpaceOnUse">
<stop stop-color="#E4678F"/>
<stop offset="0.435161" stop-color="#AA6FAE"/>
<stop offset="0.890784" stop-color="#D8AD66"/>
</linearGradient>
</defs>
</svg>
